<svg width="24" height="24" viewBox="0 0 24 24" fill="none" xmlns="http://www.w3.org/2000/svg">
<g clip-path="url(#clip0_1_1084)">
<path d="M5.97998 6.75C5.97998 7.74456 6.37507 8.69839 7.07833 9.40165C7.78159 10.1049 8.73542 10.5 9.72998 10.5C10.7245 10.5 11.6784 10.1049 12.3816 9.40165C13.0849 8.69839 13.48 7.74456 13.48 6.75C13.48 5.75544 13.0849 4.80161 12.3816 4.09835C11.6784 3.39509 10.7245 3 9.72998 3C8.73542 3 7.78159 3.39509 7.07833 4.09835C6.37507 4.80161 5.97998 5.75544 5.97998 6.75Z" stroke="black" stroke-width="1.5" stroke-linecap="round" stroke-linejoin="round"/>
<path d="M6.09995 5.80499C2.33195 6.92433 0.541954 9.73933 0.729954 14.25V21.75C0.729954 22.1478 0.887989 22.5293 1.16929 22.8107C1.30858 22.9499 1.47394 23.0604 1.65593 23.1358C1.83792 23.2112 2.03297 23.25 2.22995 23.25H21.73C22.1278 23.25 22.5093 23.092 22.7906 22.8107C23.0719 22.5293 23.23 22.1478 23.23 21.75V15.027C23.2308 14.787 23.174 14.5503 23.0643 14.3368C22.9547 14.1233 22.7955 13.9392 22.6 13.8L13.434 7.33599" stroke="black" stroke-width="1.5" stroke-linecap="round" stroke-linejoin="round"/>
<path d="M23.013 14.25H0.72998" stroke="black" stroke-width="1.5" stroke-linecap="round" stroke-linejoin="round"/>
<path d="M23.013 18.75H0.72998" stroke="black" stroke-width="1.5" stroke-linecap="round" stroke-linejoin="round"/>
<path d="M10.437 3.067C10.8501 2.4166 11.4068 1.86956 12.0644 1.4679C12.7219 1.06623 13.4628 0.820646 14.23 0.75" stroke="black" stroke-width="1.5" stroke-linecap="round" stroke-linejoin="round"/>
</g>
<defs>
<clipPath id="clip0_1_1084">
<rect width="24" height="24" fill="white"/>
</clipPath>
</defs>
</svg>
