<svg width="24" height="24" viewBox="0 0 24 24" fill="none" xmlns="http://www.w3.org/2000/svg">
<g clip-path="url(#clip0_1_1069)">
<path d="M12.62 17.9C12.5786 17.5189 12.6838 17.1365 12.914 16.8301C13.1443 16.5237 13.4825 16.3163 13.86 16.25C14.4871 16.1557 15.0683 15.8652 15.52 15.42C17 14 16.62 11.22 14.7 9.29999C12.78 7.37999 9.99996 6.99999 8.57996 8.47999C8.13479 8.93168 7.84421 9.51284 7.74996 10.14C7.68366 10.5175 7.47629 10.8556 7.16989 11.0859C6.8635 11.3162 6.481 11.4213 6.09996 11.38C5.38197 11.2647 4.64702 11.3176 3.95293 11.5345C3.25884 11.7514 2.62455 12.1264 2.09996 12.63C0.0699589 14.68 0.479959 18.41 2.99996 21C5.51996 23.59 9.28996 24 11.34 21.91C11.8503 21.3871 12.2318 20.7524 12.454 20.0563C12.6762 19.3602 12.733 18.6219 12.62 17.9Z" stroke="black" stroke-width="1.5" stroke-linecap="round" stroke-linejoin="round"/>
<path d="M18.4099 3.473L20.0019 1.882C20.0019 1.882 21.0619 0.822 22.1229 1.882C22.1229 1.882 23.1829 2.942 22.1229 4.003L20.5329 5.594C20.5329 5.594 19.4719 6.654 18.4109 5.594C18.4109 5.594 17.3509 4.534 18.4109 3.473" stroke="black" stroke-width="1.5" stroke-linecap="round" stroke-linejoin="round"/>
<path d="M18.41 5.59003L14.7 9.30003" stroke="black" stroke-width="1.5" stroke-linecap="round" stroke-linejoin="round"/>
<path d="M9.48999 13.01C9.48999 13.207 9.52879 13.402 9.60417 13.584C9.67955 13.766 9.79004 13.9314 9.92933 14.0707C10.0686 14.21 10.234 14.3204 10.416 14.3958C10.598 14.4712 10.793 14.51 10.99 14.51C11.187 14.51 11.382 14.4712 11.564 14.3958C11.746 14.3204 11.9114 14.21 12.0507 14.0707C12.1899 13.9314 12.3004 13.766 12.3758 13.584C12.4512 13.402 12.49 13.207 12.49 13.01C12.49 12.813 12.4512 12.618 12.3758 12.436C12.3004 12.254 12.1899 12.0886 12.0507 11.9493C11.9114 11.8101 11.746 11.6996 11.564 11.6242C11.382 11.5488 11.187 11.51 10.99 11.51C10.793 11.51 10.598 11.5488 10.416 11.6242C10.234 11.6996 10.0686 11.8101 9.92933 11.9493C9.79004 12.0886 9.67955 12.254 9.60417 12.436C9.52879 12.618 9.48999 12.813 9.48999 13.01Z" stroke="black" stroke-width="1.5" stroke-linecap="round" stroke-linejoin="round"/>
<path d="M5.15991 16.72L7.27991 18.84" stroke="black" stroke-width="1.5" stroke-linecap="round" stroke-linejoin="round"/>
</g>
<defs>
<clipPath id="clip0_1_1069">
<rect width="24" height="24" fill="white"/>
</clipPath>
</defs>
</svg>
