<svg width="24" height="24" viewBox="0 0 24 24" fill="none" xmlns="http://www.w3.org/2000/svg">
<path d="M0.75 1.75L23.25 5.337" stroke="black" stroke-width="1.5" stroke-linecap="round" stroke-linejoin="round"/>
<path d="M2.29297 2L3.30697 6.153C3.36776 6.33942 3.4788 6.50546 3.62786 6.63285C3.77692 6.76024 3.95823 6.84405 4.15184 6.87506C4.34545 6.90607 4.54387 6.88308 4.72526 6.80862C4.90665 6.73415 5.06399 6.6111 5.17997 6.453L7.43597 2.816" stroke="black" stroke-width="1.5" stroke-linecap="round" stroke-linejoin="round"/>
<path d="M9.49402 3.14398L10.508 7.29998C10.5689 7.48617 10.68 7.65197 10.8289 7.77918C10.9779 7.90639 11.1591 7.99009 11.3525 8.02109C11.5459 8.05209 11.7442 8.02918 11.9254 7.9549C12.1067 7.88061 12.264 7.75781 12.38 7.59998L14.637 3.96398" stroke="black" stroke-width="1.5" stroke-linecap="round" stroke-linejoin="round"/>
<path d="M16.694 4.29199L17.708 8.44899C17.7688 8.63541 17.8798 8.80145 18.0289 8.92884C18.1779 9.05623 18.3592 9.14004 18.5528 9.17106C18.7465 9.20207 18.9449 9.17907 19.1263 9.10461C19.3077 9.03015 19.465 8.9071 19.581 8.74899L21.837 5.11299" stroke="black" stroke-width="1.5" stroke-linecap="round" stroke-linejoin="round"/>
<path d="M0.759033 19.793L23.25 11.098" stroke="black" stroke-width="1.5" stroke-linecap="round" stroke-linejoin="round"/>
<path d="M2.30005 19.2L5.44305 22.466C5.59826 22.6039 5.78845 22.6963 5.99274 22.7332C6.19704 22.77 6.40754 22.7499 6.60114 22.675C6.79475 22.6001 6.96399 22.4733 7.09027 22.3086C7.21656 22.1438 7.29502 21.9474 7.31705 21.741L7.44605 17.21" stroke="black" stroke-width="1.5" stroke-linecap="round" stroke-linejoin="round"/>
<path d="M9.50696 16.411L12.65 19.677C12.8051 19.8148 12.9952 19.9073 13.1994 19.9442C13.4036 19.9811 13.6141 19.9611 13.8077 19.8863C14.0012 19.8115 14.1705 19.6848 14.2968 19.5202C14.4232 19.3556 14.5018 19.1593 14.524 18.953L14.653 14.422" stroke="black" stroke-width="1.5" stroke-linecap="round" stroke-linejoin="round"/>
<path d="M16.7111 13.626L19.8551 16.892C20.0102 17.0299 20.2003 17.1224 20.4046 17.1593C20.6088 17.1962 20.8193 17.1761 21.0129 17.1012C21.2064 17.0263 21.3756 16.8994 21.5018 16.7346C21.6279 16.5698 21.7062 16.3734 21.7281 16.167L21.8571 11.636" stroke="black" stroke-width="1.5" stroke-linecap="round" stroke-linejoin="round"/>
</svg>
