<svg width="24" height="24" viewBox="0 0 24 24" fill="none" xmlns="http://www.w3.org/2000/svg">
<g clip-path="url(#clip0_1_1066)">
<path d="M6.658 16.913C5.30404 16.5119 4.07571 15.7699 3.09055 14.7582C2.10539 13.7465 1.39638 12.4988 1.03137 11.1347C0.666364 9.77053 0.657578 8.33554 1.00585 6.96702C1.35413 5.59851 2.04781 4.34228 3.02051 3.31857C3.99321 2.29486 5.21237 1.53793 6.56131 1.12022C7.91025 0.702504 9.34382 0.637991 10.7248 0.932852C12.1058 1.22771 13.3881 1.87208 14.4488 2.80429C15.5095 3.73649 16.3132 4.92533 16.783 6.25703" stroke="black" stroke-width="1.5" stroke-linecap="round" stroke-linejoin="round"/>
<path d="M7.34998 8.99998C7.34998 9.43758 7.52381 9.85727 7.83325 10.1667C8.14268 10.4761 8.56237 10.65 8.99998 10.65C9.43758 10.65 9.85727 10.4761 10.1667 10.1667C10.4761 9.85727 10.65 9.43758 10.65 8.99998C10.65 8.56237 10.4761 8.14268 10.1667 7.83325C9.85727 7.52381 9.43758 7.34998 8.99998 7.34998C8.56237 7.34998 8.14268 7.52381 7.83325 7.83325C7.52381 8.14268 7.34998 8.56237 7.34998 8.99998Z" stroke="black" stroke-width="1.5" stroke-linecap="round" stroke-linejoin="round"/>
<path d="M4.30798 7.97099C4.52877 7.15446 4.95465 6.40795 5.54518 5.80237C6.13571 5.19678 6.87127 4.75225 7.68198 4.51099" stroke="black" stroke-width="1.5" stroke-linecap="round" stroke-linejoin="round"/>
<path d="M18.179 10.062C17.9469 9.72039 17.5886 9.48497 17.183 9.40752C16.7774 9.33007 16.3576 9.41693 16.016 9.64899C15.6744 9.88106 15.4389 10.2393 15.3615 10.645C15.284 11.0506 15.3709 11.4704 15.603 11.812L17.27 14.266L14.4 11.4C14.1043 11.1281 13.715 10.981 13.3135 10.9894C12.9119 10.9978 12.5291 11.1611 12.2451 11.4451C11.9611 11.7291 11.7978 12.1119 11.7894 12.5135C11.781 12.9151 11.9281 13.3043 12.2 13.6L15.1 16.505L12.543 15.145C12.3622 15.045 12.1633 14.9821 11.9579 14.9597C11.7525 14.9374 11.5447 14.9562 11.3467 15.015C11.1486 15.0738 10.9642 15.1714 10.8043 15.3021C10.6443 15.4329 10.512 15.5941 10.415 15.7765C10.318 15.9589 10.2582 16.1588 10.2393 16.3645C10.2203 16.5703 10.2424 16.7777 10.3044 16.9748C10.3664 17.1719 10.467 17.3546 10.6003 17.5124C10.7336 17.6703 10.897 17.8 11.081 17.894L14.748 19.844L13.329 19.544C13.1425 19.5052 12.9502 19.5035 12.7631 19.539C12.5759 19.5745 12.3976 19.6465 12.2383 19.751C12.079 19.8554 11.9418 19.9901 11.8346 20.1476C11.7274 20.305 11.6523 20.482 11.6135 20.6685C11.5747 20.855 11.573 21.0473 11.6085 21.2344C11.644 21.4215 11.716 21.5998 11.8204 21.7591C11.9248 21.9184 12.0596 22.0556 12.217 22.1628C12.3745 22.27 12.5515 22.3452 12.738 22.384L17.164 23.166C17.8197 23.2972 18.4977 23.2645 19.1378 23.0707C19.7779 22.8769 20.3602 22.528 20.833 22.055L22.233 20.655C22.8822 20.0049 23.2469 19.1237 23.2469 18.205C23.2469 17.2862 22.8822 16.4051 22.233 15.755L18.179 10.062Z" stroke="black" stroke-width="1.5" stroke-linecap="round" stroke-linejoin="round"/>
</g>
<defs>
<clipPath id="clip0_1_1066">
<rect width="24" height="24" fill="white"/>
</clipPath>
</defs>
</svg>
