<svg width="24" height="24" viewBox="0 0 24 24" fill="none" xmlns="http://www.w3.org/2000/svg">
<path d="M18.555 14.062C18.0133 11.5359 16.5723 9.29274 14.5 7.74998C11.5 5.49998 4.75 4.74998 4.75 4.74998V9.99998C4.75 11.9891 5.54018 13.8968 6.9467 15.3033C8.35322 16.7098 10.2609 17.5 12.25 17.5C14.2391 17.5 16.1468 16.7098 17.5533 15.3033C18.9598 13.8968 19.75 11.9891 19.75 9.99998V4.74998C17.507 4.37598 14.061 4.67198 12.682 6.72298" stroke="black" stroke-width="1.5" stroke-linecap="round" stroke-linejoin="round"/>
<path d="M7.75 5.244V1.75C9.04334 1.76843 10.3104 2.11756 11.4307 2.76416C12.551 3.41076 13.4871 4.33331 14.15 5.444" stroke="black" stroke-width="1.5" stroke-linecap="round" stroke-linejoin="round"/>
<path d="M16.75 4.685V1.75C16.75 1.75 13.75 1.802 12.25 3.302" stroke="black" stroke-width="1.5" stroke-linecap="round" stroke-linejoin="round"/>
<path d="M12.25 17.5V22.75" stroke="black" stroke-width="1.5" stroke-linecap="round" stroke-linejoin="round"/>
</svg>
