<svg width="24" height="24" viewBox="0 0 24 24" fill="none" xmlns="http://www.w3.org/2000/svg">
<g clip-path="url(#clip0_1_1078)">
<path d="M8.90001 9.27002L1.98001 16.19C1.23444 16.9587 0.821133 17.9898 0.829344 19.0606C0.837555 20.1314 1.26663 21.156 2.02389 21.9131C2.78116 22.6703 3.80585 23.0992 4.87666 23.1072C5.94748 23.1152 6.97848 22.7017 7.74701 21.956L14.667 15.036L8.90001 9.27002Z" stroke="black" stroke-width="1.5" stroke-linecap="round" stroke-linejoin="round"/>
<path d="M8.90002 9.26999L10.334 2.09999C10.4159 1.67898 10.6613 1.3076 11.0165 1.06728C11.3718 0.826957 11.8078 0.73731 12.229 0.817993C14.906 1.37577 17.3588 2.71122 19.28 4.65699C21.2254 6.57857 22.5607 9.03122 23.119 11.708C23.1985 12.1293 23.1077 12.565 22.8667 12.9196C22.6257 13.2741 22.254 13.5188 21.833 13.6L14.667 15.033" stroke="black" stroke-width="1.5" stroke-linecap="round" stroke-linejoin="round"/>
<path d="M6.59399 11.577L12.36 17.343" stroke="black" stroke-width="1.5" stroke-linecap="round" stroke-linejoin="round"/>
<path d="M19.28 4.65698L16.973 6.96298" stroke="black" stroke-width="1.5" stroke-linecap="round" stroke-linejoin="round"/>
<path d="M14.9909 1.70203L13.5129 4.65703" stroke="black" stroke-width="1.5" stroke-linecap="round" stroke-linejoin="round"/>
<path d="M22.235 8.94598L19.28 10.423" stroke="black" stroke-width="1.5" stroke-linecap="round" stroke-linejoin="round"/>
</g>
<defs>
<clipPath id="clip0_1_1078">
<rect width="24" height="24" fill="white"/>
</clipPath>
</defs>
</svg>
